# File created by Blade
# Date/Time:  Wed Jan 21 14:37:15 2015
# Frame Rate: 120.000 fps
#------------------------------------------------------
:FULLY-SPECIFIED
:DEGREES
725
root 18.850345 35.568299 -21.176878 -175.027337 -0.936910 -178.092662
Spine -19.603348 -12.292690 4.536393
Head 10.008551 7.453609 1.571775
LeftShoulder 23.240151 -64.018608 9.297697
LeftArm 55.666869 47.587807 -72.010554
LeftForeArm 28.038906 -0.000000 93.695284
LeftHand -3.232347 -0.000000 -6.020734
LeftHandThumb1 -26.253704 0.000000 33.147579
RightShoulder 6.011303 -0.367761 4.714775
RightArm 50.526454 -21.606782 48.141358
RightForeArm -1.261832 -0.000000 98.938703
RightHand 3.440524 -0.000000 0.049261
RightHandThumb1 -24.326973 -0.000000 -32.862282
LeftUpLeg 1.268066 13.321328 2.564916
LeftLeg -5.530340 -0.000000 0.000000
LeftFoot -19.488093 29.810067 -10.977839
LeftToeBase 27.209003 -0.000000 -0.000000
RightUpLeg 0.534288 -8.900051 2.000143
RightLeg -3.209923 -0.000000 0.000000
RightFoot -19.208100 -25.277564 13.638665
RightToeBase 23.927520 -0.000000 -0.000000
726
root 18.854248 35.567450 -21.167162 -175.100657 -0.913981 -178.092394
Spine -19.549373 -12.086303 4.460773
Head 10.055586 7.332248 1.492528
LeftShoulder 21.778181 -62.943754 9.925178
LeftArm 56.242419 47.604723 -70.574934
LeftForeArm 27.977816 -0.000000 93.730049
LeftHand -3.124409 -0.000000 -5.795298
LeftHandThumb1 -26.253704 0.000000 33.147579
RightShoulder 5.926660 -0.417240 4.593375
RightArm 50.314724 -21.883643 47.794270
RightForeArm -2.841408 0.000000 97.761429
RightHand 3.371733 0.000000 0.189512
RightHandThumb1 -24.326973 -0.000000 -32.862282
LeftUpLeg 1.322733 13.358962 2.583742
LeftLeg -5.515973 -0.000000 0.000000
LeftFoot -19.483065 29.798465 -10.958607
LeftToeBase 27.204931 -0.000000 -0.000000
RightUpLeg 0.583107 -8.862716 1.996046
RightLeg -3.194420 -0.000000 0.000000
RightFoot -19.211291 -25.301581 13.612582
RightToeBase 23.907382 -0.000000 -0.000000
727
root 18.856458 35.566745 -21.159102 -175.184575 -0.917402 -178.102898
Spine -19.487087 -11.939433 4.393842
Head 10.096499 7.251325 1.385437
LeftShoulder 20.414424 -61.900125 10.435364
LeftArm 56.743278 47.609504 -69.148690
LeftForeArm 28.016688 -0.000000 93.682158
LeftHand -2.903167 -0.000000 -5.411055
LeftHandThumb1 -26.253704 0.000000 33.147579
RightShoulder 5.796687 -0.629044 4.474669
RightArm 50.303739 -22.116998 47.364995
RightForeArm -3.876594 -0.000000 96.476033
RightHand 3.345321 -0.000000 0.362404
RightHandThumb1 -24.326973 -0.000000 -32.862282
LeftUpLeg 1.388944 13.349416 2.593339
LeftLeg -5.504749 -0.000000 0.000000
LeftFoot -19.483484 29.802720 -10.952964
LeftToeBase 27.215198 -0.000000 -0.000000
RightUpLeg 0.628425 -8.933365 1.979124
RightLeg -3.142234 -0.000000 0.000000
RightFoot -19.207355 -25.253338 13.522239
RightToeBase 23.921816 -0.000000 -0.000000
728
root 18.858378 35.566650 -21.149072 -175.247137 -0.918626 -178.104380
Spine -19.438431 -11.768019 4.335223
Head 10.123320 7.149126 1.284579
LeftShoulder 18.997569 -60.836820 10.992735
LeftArm 57.394753 47.583872 -67.606165
LeftForeArm 27.977952 -0.000000 93.608452
LeftHand -2.782474 -0.000000 -5.156144
LeftHandThumb1 -26.253704 0.000000 33.147579
RightShoulder 5.700345 -1.004340 4.355993
RightArm 50.400121 -22.215722 46.856791
RightForeArm -4.504289 -0.000000 95.172028
RightHand 3.322597 -0.000000 0.351427
RightHandThumb1 -24.326973 -0.000000 -32.862282
LeftUpLeg 1.431287 13.371573 2.606402
LeftLeg -5.496054 -0.000000 0.000000
LeftFoot -19.478237 29.778345 -10.934134
LeftToeBase 27.236540 -0.000000 -0.000000
RightUpLeg 0.656199 -8.982679 1.976207
RightLeg -3.109073 -0.000000 0.000000
RightFoot -19.205305 -25.199899 13.564462
RightToeBase 23.846667 -0.000000 -0.000000
729
root 18.861754 35.565835 -21.139153 -175.315030 -0.921141 -178.096480
Spine -19.369747 -11.491103 4.244435
Head 10.122611 6.933016 1.196954
LeftShoulder 18.055704 -59.946118 11.150373
LeftArm 57.717935 47.543257 -66.262315
LeftForeArm 27.905477 0.000000 93.569387
LeftHand -2.659479 -0.000000 -4.848715
LeftHandThumb1 -26.253704 0.000000 33.147579
RightShoulder 5.463552 -1.356826 4.214572
RightArm 50.477198 -22.351670 46.397081
RightForeArm -4.922407 0.000000 93.855075
RightHand 3.144635 -0.000000 0.374218
RightHandThumb1 -24.326973 -0.000000 -32.862282
LeftUpLeg 1.479728 13.382699 2.629790
LeftLeg -5.490337 -0.000000 0.000000
LeftFoot -19.391523 29.781650 -10.843674
LeftToeBase 27.051717 -0.000000 -0.000000
RightUpLeg 0.699153 -8.975069 1.983256
RightLeg -3.090444 -0.000000 0.000000
RightFoot -19.210614 -25.246214 13.479723
RightToeBase 23.973434 -0.000000 -0.000000
